<svg version="1.2" xmlns="http://www.w3.org/2000/svg" viewBox="0 0 173 169" width="173" height="169">
	<title>metamask-fox-svg</title>
	<style>
		.s0 { fill: #f5841f } 
		.s1 { fill: #e27625 } 
		.s2 { fill: #d7c1b3 } 
		.s3 { fill: #2f343b } 
		.s4 { fill: #cc6228 } 
		.s5 { fill: #c0ad9e } 
		.s6 { fill: #763e1a } 
		.s7 { fill: #ffffff } 
	</style>
	<g id="MM_Head_background__x28_Do_not_edit_x29_">
		<path class="s0" d="m157.3 9.5l-49.3 18.2h-41l-49.2-18.3 0.3 0.2-0.3-0.2-7.7 22.8 5.1 24.6-3.3 2.4 4.9 3.7-3.7 2.8 4.8 4.4-3 2.2 7 8.1-10.6 32.6 9.8 33.3 34.4-9.4 6.7 5.4 13.6 9.3h23.3l13.6-9.3 6.6-5.5v-0.1 0.1l34.4 9.4 9.9-33.3-10.6-32.6m0.1 0.2l7-8.1-3-2.2 4.8-4.4-3.7-2.8 4.8-3.7-3.2-2.4 5.1-24.6-7.7-22.8"/>
	</g>
	<g id="Logos">
		<g>
			<g>
				<path class="s1" d="m157.3 9.5l-60.5 44.4 11.2-26.2z"/>
				<path class="s1" d="m17.8 9.5l59.9 44.8-10.7-26.6z"/>
				<path class="s1" d="m135.5 112.6l-16.1 24.4 34.4 9.4 9.9-33.3z"/>
				<path class="s1" d="m11.4 113.1l9.8 33.3 34.4-9.4-16-24.4z"/>
				<path class="s1" d="m53.7 71.3l-9.5 14.4 34.1 1.5-1.2-36.5z"/>
				<path class="s1" d="m121.3 71.3l-23.7-21-0.8 36.9 34.1-1.5z"/>
				<path class="s1" d="m55.6 137l20.6-9.9-17.7-13.8z"/>
				<path class="s1" d="m98.8 127.1l20.6 9.9-2.8-23.7z"/>
				<path class="s2" d="m119.4 137l-20.6-9.9 1.7 13.3-0.2 5.6z"/>
				<path class="s2" d="m55.6 137l19.1 9-0.1-5.6 1.6-13.3z"/>
				<path class="s3" d="m75.1 104.6l-17.1-5 12.1-5.5z"/>
				<path class="s3" d="m100 104.6l5-10.5 12.1 5.5z"/>
				<path class="s4" d="m55.6 137l3-24.4-19 0.5z"/>
				<path class="s4" d="m116.5 112.6l2.9 24.4 16.1-23.9z"/>
				<path class="s4" d="m130.9 85.7l-34.1 1.5 3.2 17.4 5-10.5 12.1 5.5z"/>
				<path class="s4" d="m58 99.6l12.1-5.5 5 10.5 3.2-17.4-34.1-1.5z"/>
				<path class="s1" d="m44.2 85.7l14.3 27.6-0.5-13.7z"/>
				<path class="s1" d="m117.1 99.6l-0.5 13.7 14.3-27.6z"/>
				<path class="s1" d="m78.3 87.2l-3.2 17.4 4 20.5 0.9-27.1z"/>
				<path class="s1" d="m96.8 87.2l-1.7 10.8 0.9 27.1 4-20.5z"/>
				<path class="s0" d="m100 104.6l-4 20.5 2.8 2 17.8-13.8 0.5-13.7z"/>
				<path class="s0" d="m58 99.6l0.5 13.7 17.7 13.8 2.9-2-4-20.5z"/>
				<path class="s5" d="m100.3 146l0.2-5.6-1.5-1.3h-22.9l-1.5 1.3 0.1 5.6-19.1-9 6.7 5.5 13.6 9.3h23.2l13.7-9.3 6.6-5.5z"/>
				<path class="s3" d="m98.8 127.1l-2.8-2h-16.9l-2.9 2-1.6 13.3 1.5-1.3h22.9l1.5 1.3z"/>
				<path class="s6" d="m159.8 56.8l5.1-24.5-7.6-22.8-58.5 42.9 22.5 18.9 31.8 9.2 7-8.1-3.1-2.2 4.9-4.4-3.7-2.9 4.8-3.6z"/>
				<path class="s6" d="m10.1 32.3l5.2 24.5-3.3 2.5 4.9 3.6-3.7 2.9 4.8 4.4-3 2.2 7 8.1 31.7-9.2 22.5-18.9-58.4-42.9z"/>
				<path class="s0" d="m153.1 80.5l-31.8-9.2 9.6 14.4-14.3 27.6 18.9-0.2h28.2z"/>
				<path class="s0" d="m53.7 71.3l-31.7 9.2-10.6 32.6h28.2l18.9 0.2-14.3-27.6z"/>
				<path class="s0" d="m96.8 87.2l2-34.8 9.2-24.7h-41l9.2 24.7 2.1 34.8 0.7 10.9 0.1 27h16.9v-27z"/>
			</g>
			<g>
				<path class="s7" d="m192.9 210.4c-2.2-1.5-4.7-2.5-7-3.8-1.5-0.9-3.1-1.6-4.4-2.7-2.2-1.8-1.8-5.4 0.6-7 3.3-2.2 8.9-1 9.5 3.6 0 0.1 0.1 0.2 0.2 0.2h5.1c0.1 0 0.2-0.1 0.2-0.2-0.3-3.2-1.5-5.8-3.7-7.5-2.1-1.6-4.6-2.5-7.2-2.5-13.4 0-14.6 14.1-7.4 18.6 0.8 0.5 7.9 4.1 10.4 5.6 2.5 1.5 3.3 4.4 2.2 6.6-1 2-3.5 3.4-6.1 3.3-2.8-0.2-5-1.7-5.7-4-0.1-0.4-0.2-1.2-0.2-1.6 0-0.1-0.1-0.2-0.2-0.2h-5.5c-0.1 0-0.2 0.1-0.2 0.2 0 4 1 6.2 3.7 8.2 2.5 1.9 5.3 2.7 8.1 2.7 7.5 0 11.4-4.2 12.1-8.6 0.6-4.4-0.7-8.3-4.5-10.9z"/>
				<path class="s7" d="m-42 191.2h-8.3c-0.1 0-0.2 0.1-0.2 0.1l-4.5 14.8c-0.1 0.2-0.3 0.2-0.4 0l-4.5-14.8c0-0.1-0.1-0.1-0.2-0.1h-8.4c-0.1 0-0.2 0.1-0.2 0.2v37.9c0 0.1 0.1 0.2 0.2 0.2h5.5c0.1 0 0.2-0.1 0.2-0.2v-28.8c0-0.2 0.3-0.3 0.4-0.1l4.5 14.9 0.3 1.1c0 0.1 0.1 0.1 0.2 0.1h4.2c0.1 0 0.2-0.1 0.2-0.1l0.3-1.1 4.5-14.9c0.1-0.2 0.4-0.2 0.4 0.1v28.8c0 0.1 0.1 0.2 0.2 0.2h5.5c0.1 0 0.2-0.1 0.2-0.2v-37.9c0.1-0.1 0-0.2-0.1-0.2z"/>
				<path class="s7" d="m108.9 191.2c-0.1 0-0.2 0.1-0.2 0.1l-4.5 14.8c-0.1 0.2-0.3 0.2-0.4 0l-4.5-14.8c0-0.1-0.1-0.1-0.2-0.1h-8.3c-0.1 0-0.2 0.1-0.2 0.2v37.9c0 0.1 0.1 0.2 0.2 0.2h5.5c0.1 0 0.2-0.1 0.2-0.2v-28.8c0-0.2 0.3-0.3 0.4-0.1l4.5 14.9 0.3 1.1c0 0.1 0.1 0.1 0.2 0.1h4.2c0.1 0 0.2-0.1 0.2-0.1l0.3-1.1 4.5-14.9c0.1-0.2 0.4-0.2 0.4 0.1v28.8c0 0.1 0.1 0.2 0.2 0.2h5.5c0.1 0 0.2-0.1 0.2-0.2v-37.9c0-0.1-0.1-0.2-0.2-0.2z"/>
				<path class="s7" d="m38.2 191.2h-25.9c-0.1 0-0.2 0.1-0.2 0.2v4.7c0 0.1 0.1 0.2 0.2 0.2h10v33c0 0.1 0.1 0.2 0.2 0.2h5.5c0.1 0 0.2-0.1 0.2-0.2v-33h10c0.1 0 0.2-0.1 0.2-0.2v-4.7c0-0.1-0.1-0.2-0.2-0.2z"/>
				<path fill-rule="evenodd" class="s7" d="m70.3 229.4l-3-11.1c0 0-0.1-0.1-0.2-0.1h-11c-0.1 0-0.2 0-0.2 0.1l-3 11.1c0 0-0.1 0.1-0.2 0.1h-5c-0.1 0-0.2-0.2-0.2-0.3l10.3-38c0 0 0.1-0.1 0.2-0.1h7.2c0.1 0 0.2 0 0.2 0.1l10.3 38c0 0.2-0.1 0.3-0.2 0.3h-5c0 0-0.1-0.1-0.2-0.1zm-12.7-16.4h8c0.1 0 0.2-0.2 0.2-0.3l-4-14.8c-0.1-0.2-0.3-0.2-0.4 0l-4 14.8c0 0.1 0.1 0.3 0.2 0.3z"/>
				<path fill-rule="evenodd" class="s7" d="m155.4 229.4l-3-11.1c0 0-0.1-0.1-0.2-0.1h-11c-0.1 0-0.2 0-0.2 0.1l-3 11.1c0 0-0.1 0.1-0.2 0.1h-5c-0.1 0-0.2-0.2-0.2-0.3l10.3-38c0 0 0.1-0.1 0.2-0.1h7.2c0.1 0 0.2 0 0.2 0.1l10.3 38c0 0.2-0.1 0.3-0.2 0.3h-5c-0.1 0-0.1-0.1-0.2-0.1zm-12.7-16.4h8c0.1 0 0.2-0.2 0.2-0.3l-4-14.8c-0.1-0.2-0.3-0.2-0.4 0l-4 14.8c0 0.1 0.1 0.3 0.2 0.3z"/>
				<path class="s7" d="m-19.5 223.9v-11.8c0-0.1 0.1-0.2 0.2-0.2h14.6c0.1 0 0.2-0.1 0.2-0.2v-4.7c0-0.1-0.1-0.2-0.2-0.2h-14.6c-0.1 0-0.2-0.1-0.2-0.2v-10c0-0.1 0.1-0.2 0.2-0.2h16.6c0.1 0 0.2-0.1 0.2-0.2v-4.7c0-0.1-0.1-0.2-0.2-0.2h-22.5c-0.1 0-0.2 0.1-0.2 0.2v37.9c0 0.1 0.1 0.2 0.2 0.2h23.2c0.1 0 0.2-0.1 0.2-0.2v-5c0-0.1-0.1-0.2-0.2-0.2h-17.3c-0.1-0.1-0.2-0.2-0.2-0.3z"/>
				<path class="s7" d="m243 229.1l-19-19.6q-0.2-0.1 0-0.3l17.1-17.7c0.1-0.1 0-0.3-0.1-0.3h-7c-0.1 0-0.1 0-0.1 0.1l-14.5 15c-0.1 0.1-0.3 0-0.3-0.1v-14.8c0-0.1-0.1-0.2-0.2-0.2h-5.5c-0.1 0-0.2 0.1-0.2 0.2v37.9c0 0.1 0.1 0.2 0.2 0.2h5.5c0.1 0 0.2-0.1 0.2-0.2v-16.7c0-0.2 0.2-0.3 0.3-0.1l16.4 16.9 0.1 0.1h7c0.1 0 0.2-0.3 0.1-0.4z"/>
			</g>
		</g>
	</g>
</svg>